# xmcd
#
# Track frame offsets: 
#        150
#        19239
#        36969
#        55139
#        74161
#        96633
#        115365
#        132872
#        149315
#        168372
#        184919
#        203707
#        223262
#        240912
#
# Disc length: 3453 seconds
#
# Revision: 0
# Processed by: cddbd v1.5.2PL0 Copyright (c) Steve Scherf et al.
# Submitted via: ExactAudioCopy v0.99pb3
#
DISCID=da0d7b0e
DTITLE=장혜진 - 불후의 명작 CD2
DYEAR=2009
DGENRE=Ballad
TTITLE0=불꽃 Feat. 개리
TTITLE1=마주치지 말자
TTITLE2=못다한 사랑
TTITLE3=가라 사랑아
TTITLE4=왜？
TTITLE5=두 번 뜨는 달
TTITLE6=그대를 보내며
TTITLE7=달콤한 상상
TTITLE8=그대를 위한... 또 나를 위한...
TTITLE9=불어다오
TTITLE10=그림자 하나
TTITLE11=마지막 이별
TTITLE12=널 위한 세상
TTITLE13=1994년 어느 늦은 밤
EXTD=
EXTT0=
EXTT1=
EXTT2=
EXTT3=
EXTT4=
EXTT5=
EXTT6=
EXTT7=
EXTT8=
EXTT9=
EXTT10=
EXTT11=
EXTT12=
EXTT13=
PLAYORDER=
